<svg id="Layer_1" data-name="Layer 1" xmlns="http://www.w3.org/2000/svg" viewBox="0 0 500 500" width="500" height="500" class="illustration"><defs><style>.cls-1{fill:#e2e2e2;}.cls-2{fill:#f2f2f2;}.cls-3{fill:#9c5631;}.cls-4{fill:#8e3f1c;}.cls-5{fill:#f0457d;}.cls-6{fill:#f9bb0d;}</style></defs><title>Creative Tools</title><rect class="cls-1" x="129.93" y="54.5" width="275" height="252" rx="11.95"></rect><rect class="cls-2" x="101.93" y="54.5" width="275" height="252" rx="11.95"></rect><path class="cls-3" d="M301.42,49.29A5.29,5.29,0,0,0,296.14,44H201.92a7,7,0,0,0-7,7V66.43a7,7,0,0,0,7,7h70a7,7,0,0,0,7-7v-12h22.52Z"></path><path class="cls-4" d="M296.15,44h-19a12.08,12.08,0,0,0-12.06,11.8L265,59.65a14.46,14.46,0,0,1-.34,2.74,14.15,14.15,0,0,1-10.92,10.76l-.3.29h18.48a7,7,0,0,0,7-7v-12h22.52V49.28A5.29,5.29,0,0,0,296.15,44Z"></path><path class="cls-3" d="M227.13,295H202.52a3,3,0,0,0-2.81,2l-56.8,155a3,3,0,0,0,2.81,4h24.61a3,3,0,0,0,2.82-2L230,299A3,3,0,0,0,227.13,295Z"></path><path class="cls-4" d="M227.62,295h-8a3,3,0,0,1,2.82,4l-56.8,155a3,3,0,0,1-2.82,2h8a3,3,0,0,0,2.82-2l56.8-155A3,3,0,0,0,227.62,295Z"></path><path class="cls-3" d="M270.31,295h24.61a3,3,0,0,1,2.82,2l56.8,155a3,3,0,0,1-2.81,4H327.12a3,3,0,0,1-2.82-2L267.5,299A3,3,0,0,1,270.31,295Z"></path><path class="cls-4" d="M269.82,295h8a3,3,0,0,0-2.81,4l56.8,155a3,3,0,0,0,2.82,2h-8a3,3,0,0,1-2.82-2L267,299A3,3,0,0,1,269.82,295Z"></path><path class="cls-3" d="M342.42,312a5.49,5.49,0,0,1-5.5,5.49h-174a7.3,7.3,0,0,1-7.3-7.3v-16a7.3,7.3,0,0,1,7.3-7.3H311.7a7.3,7.3,0,0,1,7.3,7.3v12.52h23.42Z"></path><path class="cls-4" d="M336.93,317.46H325.79c.2,0-.69,0-2.21,0h-6.44a12.59,12.59,0,0,1-12.55-12.28l-.09-4a14.25,14.25,0,0,0-.35-2.86,14.72,14.72,0,0,0-11.36-11.19l-.31-.3h19.23a7.3,7.3,0,0,1,7.3,7.3v12.52h23.42V312A5.5,5.5,0,0,1,336.93,317.46Z"></path><rect class="cls-3" x="184.43" y="365" width="127" height="21"></rect><path class="cls-5" d="M162,237.48s28.5-43.06,39.28-49.48,24.3,45,44.53,41.77,35.11-61.05,53.06-53.34,39.15,61,39.15,61Z"></path><circle class="cls-6" cx="247.93" cy="168.14" r="12.78"></circle></svg>