<svg xmlns="http://www.w3.org/2000/svg" viewBox="0 0 500 500" width="500" height="500" class="illustration"><defs><style>.cls-1,.cls-5{isolation:isolate;}.cls-2{fill:#e2e2e2;}.cls-3{fill:#c3c7c9;}.cls-4{fill:#0099f5;}.cls-5{opacity:0.09;}.cls-6{fill:#24285b;}.cls-7{fill:#ffbeb3;}.cls-8{fill:#f9a498;}.cls-9{fill:#efe8e4;}.cls-13,.cls-9{mix-blend-mode:multiply;}.cls-10{fill:#9c5631;}.cls-11{opacity:0.5;mix-blend-mode:soft-light;}.cls-12{fill:#fff;}.cls-13{opacity:0.1;}.cls-14{fill:#afaaa8;}.cls-15{fill:#f0457d;}.cls-16{fill:#db2868;}.cls-17{fill:none;stroke:#fff;stroke-linecap:round;stroke-linejoin:round;stroke-width:9px;}</style></defs><title>Digital Nomad</title><g class="cls-1"><g id="Layer_1" data-name="Layer 1"><path class="cls-2" d="M448.65,290.36V269.77a5.1,5.1,0,0,0-4.21-5l-14.87-2.59a5.08,5.08,0,0,1-3.82-3.07l0-.06a5.07,5.07,0,0,1,.53-4.87l8.67-12.35a5.08,5.08,0,0,0-.56-6.53l-14.56-14.56a5.1,5.1,0,0,0-6.53-.56l-12.35,8.67a5.07,5.07,0,0,1-4.87.53l-.06,0a5.08,5.08,0,0,1-3.07-3.82l-2.59-14.87a5.1,5.1,0,0,0-5-4.21H364.73a5.1,5.1,0,0,0-5,4.21l-2.59,14.87a5.08,5.08,0,0,1-3.07,3.82l-.05,0a5.09,5.09,0,0,1-4.88-.53l-12.35-8.67a5.1,5.1,0,0,0-6.53.56l-14.55,14.56a5.08,5.08,0,0,0-.57,6.53l8.67,12.35a5.1,5.1,0,0,1,.54,4.87l0,.06a5.08,5.08,0,0,1-3.82,3.07l-14.87,2.59a5.1,5.1,0,0,0-4.21,5v20.59a5.1,5.1,0,0,0,4.21,5L320.48,298A5.08,5.08,0,0,1,324.3,301l0,.06a5.1,5.1,0,0,1-.54,4.87l-8.67,12.35a5.08,5.08,0,0,0,.57,6.53l14.55,14.56a5.1,5.1,0,0,0,6.53.56l12.35-8.67a5.09,5.09,0,0,1,4.88-.53l.05,0a5.08,5.08,0,0,1,3.07,3.82l2.59,14.87a5.1,5.1,0,0,0,5,4.21h20.59a5.1,5.1,0,0,0,5-4.21l2.59-14.87a5.08,5.08,0,0,1,3.07-3.82l.06,0a5.07,5.07,0,0,1,4.87.53L413.28,340a5.1,5.1,0,0,0,6.53-.56l14.56-14.56a5.08,5.08,0,0,0,.56-6.53L426.26,306a5.07,5.07,0,0,1-.53-4.87l0-.06a5.08,5.08,0,0,1,3.82-3.07l14.87-2.59A5.1,5.1,0,0,0,448.65,290.36Zm-74.48,15.88a26.19,26.19,0,1,1,27-27A26.28,26.28,0,0,1,374.17,306.24Z"></path><path class="cls-3" d="M378.52,206.44h6.8a5.1,5.1,0,0,1,5,4.21l2.59,14.87a5.12,5.12,0,0,0,1.7,3l-.49.34a5.1,5.1,0,0,1-4.88.53l-.05,0a5.08,5.08,0,0,1-3.07-3.82l-2.6-14.87A5.09,5.09,0,0,0,378.52,206.44ZM371.63,306a26.2,26.2,0,0,1,0-52c-.83-.11-1.68-.17-2.54-.2a26.19,26.19,0,1,0-1.71,52.35A27.21,27.21,0,0,0,371.63,306Zm-29.31-77.21a5.1,5.1,0,0,0,4.88.53l.05,0a5.13,5.13,0,0,0,1.38-.85l-11.86-8.33a5.08,5.08,0,0,0-6.29.35Zm4.93,102-.05,0a5.1,5.1,0,0,0-4.88.53l-11.84,8.32a5.08,5.08,0,0,0,6.29.35l11.86-8.33A5.13,5.13,0,0,0,347.25,330.79Zm97.19-66-14.87-2.59a5.08,5.08,0,0,1-3.82-3.07l0-.06a5.07,5.07,0,0,1,.53-4.87l8.67-12.35a5.08,5.08,0,0,0-.56-6.53l-14.56-14.55a5.08,5.08,0,0,0-6.53-.57l-.5.35.24.22,14.55,14.55a5.1,5.1,0,0,1,.57,6.53l-8.67,12.35a5.1,5.1,0,0,0-.54,4.87l0,.06a5.1,5.1,0,0,0,3.83,3.07l14.86,2.59a5.1,5.1,0,0,1,4.22,5v20.59a5.1,5.1,0,0,1-4.22,5L422.78,298A5.1,5.1,0,0,0,419,301l0,.06a5.1,5.1,0,0,0,.54,4.87l8.67,12.35a5.1,5.1,0,0,1-.57,6.53L413,339.4l-.24.22.5.35a5.08,5.08,0,0,0,6.53-.57l14.56-14.55a5.08,5.08,0,0,0,.56-6.53L426.26,306a5.07,5.07,0,0,1-.53-4.87l0-.06a5.08,5.08,0,0,1,3.82-3.07l14.87-2.59a5.1,5.1,0,0,0,4.21-5V269.77A5.1,5.1,0,0,0,444.44,264.75Zm-50.3,66.55a5.1,5.1,0,0,0-4.88-.53l-.05,0a5.08,5.08,0,0,0-3.07,3.82l-2.6,14.87a5.09,5.09,0,0,1-5,4.21h6.8a5.1,5.1,0,0,0,5-4.21l2.59-14.87a5.12,5.12,0,0,1,1.7-3Z"></path><path class="cls-4" d="M411,411.38v16.28H95.51C87.73,353.25,157.18,307.86,225.13,308c35.08.39,84.34-3.55,116.61,12.06C378.81,335.19,411.34,369.58,411,411.38Z"></path><path class="cls-5" d="M411,411.38c.31-41.8-32.22-76.19-69.29-91.29-32.27-15.61-81.53-11.67-116.61-12.06a154.88,154.88,0,0,0-61.46,12.57,154.79,154.79,0,0,1,15.52-.78c35.08.39,84.34-3.55,116.61,12.06,37.07,15.1,69.6,49.48,69.28,91.28v4.5H411Z"></path><path class="cls-5" d="M250,361.46l-31.49,19.11a3.78,3.78,0,0,1-5.23-1.33l-34-58.42a3.78,3.78,0,0,1,1.52-5.25l31.33-16.42a3.79,3.79,0,0,1,5,1.37l34.2,55.73A3.78,3.78,0,0,1,250,361.46Z"></path><path class="cls-5" d="M256.54,361.46,288,380.57a3.78,3.78,0,0,0,5.23-1.33l34-58.42a3.77,3.77,0,0,0-1.51-5.25l-31.34-16.42a3.79,3.79,0,0,0-5,1.37l-34.2,55.73A3.78,3.78,0,0,0,256.54,361.46Z"></path><path class="cls-6" d="M282.53,357.42l-29.25-10.74h0L224,357.42l20.25,35.64-7.6,34.59h33.22l-7.59-34.59Z"></path><path class="cls-7" d="M253.28,352.16a34.86,34.86,0,0,1-34.86-34.86V224.64c.78-45.79,68.93-45.84,69.71,0V317.3A34.87,34.87,0,0,1,253.28,352.16Z"></path><path class="cls-8" d="M286.45,328c-9.9,32-56.75,31.63-66.36-.05C234.18,348.26,271.76,349,286.45,328Z"></path><path class="cls-4" d="M250.3,354l-28.86,17.51a3.45,3.45,0,0,1-4.79-1.22l-31.2-53.53a3.46,3.46,0,0,1,1.39-4.81l28.71-15.05a3.49,3.49,0,0,1,4.57,1.26l31.33,51.07A3.45,3.45,0,0,1,250.3,354Z"></path><path class="cls-4" d="M256.28,354l28.86,17.51a3.47,3.47,0,0,0,4.8-1.22l31.19-53.53a3.45,3.45,0,0,0-1.38-4.81L291,296.86a3.47,3.47,0,0,0-4.56,1.26l-31.34,51.07A3.45,3.45,0,0,0,256.28,354Z"></path><path class="cls-7" d="M183.9,190.4c-1.64-8.26-9.5-16-20.29-13.59s-10.82,12.42-9.18,20.69c.09.42,5.4,22.76,8.52,27.46s7.63,13.64,15.22,11.09c5-1.68,8-10.61,9.15-17.06S183.9,190.4,183.9,190.4Z"></path><path class="cls-7" d="M321.17,190.06c1.64-8.26,9.5-15.94,20.29-13.59s11.85,12.71,10.21,21c-.09.44-5.82,21.11-8.51,27.48-2.21,5.24-8.24,14.47-16.07,11.24-4.89-2-8.15-11.06-9.34-17.51S321.17,190.06,321.17,190.06Z"></path><path class="cls-7" d="M331.71,128.25c0-35.84-22.21-71.8-81-71.8s-80.13,39.35-80.13,75.2c0,1.88-.18,99.34,11.24,121.72s42.83,45.22,70.89,45.32c30.69.12,58.26-19.59,71.15-45.32S331.71,128.25,331.71,128.25Z"></path><path class="cls-8" d="M193.2,136.33c.51.35,1,.67,1.55,1.1,1.61,1.51-6.46,19.51-4.11,19.6,11.64,2.45,25.61-22.78,37-19.24,20,6.23,57.71,56.72,94.68,55.73,9.72-9.37,9.4-65.27,9.4-65.27,0-35.84-22.21-71.8-81-71.8-48.7,0-71.65,27-78.11,56.67C181.69,117,189.31,124.52,193.2,136.33Z"></path><path class="cls-9" d="M321.21,258.11c.12-.21.27-.39.39-.59-.65.48-1.35.91-2,1.37C320.13,258.65,320.67,258.37,321.21,258.11Z"></path><path class="cls-8" d="M266,291.13c-28.06-.1-59.48-22.94-70.89-45.32S183.9,126,183.9,124.09c0-16.06,4.47-32.71,14.51-46.3a75.77,75.77,0,0,1,3.68-8.61c-22.41,14.5-31.51,39.19-31.51,62.47,0,1.88-.18,99.34,11.24,121.72s42.83,45.22,70.89,45.32c15.92.07,30.89-5.33,43.52-14A74.17,74.17,0,0,1,266,291.13Z"></path><path class="cls-10" d="M344.86,119.71C337.62,80.25,305.4,51.64,252.71,52c-52.53.33-87.06,32.53-94,69.05-3,15.64-5.24,45.38-4,63.1,8.9-7.31,12.57-8.26,16.87-6.55,2.95,32.23,10,31.75,10,31.75s.65-21.89,2.08-36.35,25.11-17.09,36.94-42.1c37.49-1.63,61.16,46.38,102.27,49-4.07,23.76,4.93,33.21,4.93,33.21s.95-19.63,4.27-28.94c2.89-8.11,11.51-8.11,15.78-4.59C349.85,164.8,348.85,141.51,344.86,119.71Z"></path><g class="cls-11"><path class="cls-12" d="M344.86,119.71C337.62,80.25,305.4,51.64,252.71,52c-46.11.29-78.34,25.13-90.2,55.9,14.78-25.3,44.41-44.31,84.68-44.56,52.69-.32,84.91,28.28,92.15,67.74a238.19,238.19,0,0,1,3.92,46.5,10.19,10.19,0,0,1,4.55,2C349.85,164.8,348.85,141.51,344.86,119.71Z"></path></g><g class="cls-13"><path class="cls-14" d="M220.56,112.13c-11.83,25-50,48.57-65.85,53.24-.05-.81-.06-1.76-.1-2.62-.29,7.82-.31,15.31.1,21.37,8.9-7.31,12.57-8.26,16.87-6.55,2.95,32.23,10,31.75,10,31.75s.65-21.89,2.08-36.35,25.11-17.09,36.94-42.1c37.33-1.62,61,45.94,101.75,48.94C292.24,169.37,258.05,110.5,220.56,112.13Z"></path></g><path class="cls-15" d="M68.27,445.89H188.39a13.19,13.19,0,0,0,13.18-13.19V348.5a13.19,13.19,0,0,0-13.18-13.19h-66l-11-16.93a1.74,1.74,0,0,0-2.87-.07l-12.26,17h-28A13.19,13.19,0,0,0,55.09,348.5v84.2A13.19,13.19,0,0,0,68.27,445.89Z"></path><path class="cls-16" d="M195.92,343.21a13.09,13.09,0,0,1,4.83.92,13.18,13.18,0,0,0-12.44-8.82H122.37l5.13,7.9Z"></path><path class="cls-16" d="M63.37,445a13.19,13.19,0,0,1-.75-4.37V356.4a13.19,13.19,0,0,1,13.19-13.19h28l12.25-17a2.09,2.09,0,0,1,.2-.22l-4.93-7.61a1.75,1.75,0,0,0-2.88-.07l-12.25,17h-28A13.2,13.2,0,0,0,55,348.5v84.2A13.19,13.19,0,0,0,63.37,445Z"></path><line class="cls-17" x1="168.09" y1="382.98" x2="118.09" y2="382.98"></line><line class="cls-17" x1="87.83" y1="402.1" x2="168.09" y2="402.1"></line><circle class="cls-12" cx="109.52" cy="382.98" r="1.99"></circle></g></g></svg>