<svg xmlns="http://www.w3.org/2000/svg" viewBox="0 0 100 100" width="500" height="500" class="illustration"><defs><style>.cls-1,.cls-5{fill:#ffd44d;}.cls-1,.cls-2,.cls-3,.cls-4,.cls-5,.cls-6{stroke:#231f20;stroke-width:1.5px;}.cls-1,.cls-2,.cls-3{stroke-miterlimit:10;}.cls-2{fill:#231f20;}.cls-3{fill:#fff;}.cls-4{fill:#0099f5;}.cls-4,.cls-5,.cls-6{stroke-linejoin:bevel;}.cls-6{fill:none;}</style></defs><g id="Layer_2" data-name="Layer 2"><rect class="cls-1" x="58.04" y="79.15" width="14.88" height="5.06"></rect><rect class="cls-1" x="28.27" y="79.15" width="14.88" height="5.06"></rect><path class="cls-2" d="M32.86,23.48H77.69a4.19,4.19,0,0,1,4.19,4.19V61.75a0,0,0,0,1,0,0h-49a4.19,4.19,0,0,1-4.19-4.19V27.67A4.19,4.19,0,0,1,32.86,23.48Z" transform="translate(97.89 -12.66) rotate(90)"></path><path class="cls-3" d="M55.71,14H36.14V67.16H70.89a3.53,3.53,0,0,0,3.52-3.52V17.48A3.53,3.53,0,0,0,70.89,14H64.33"></path><polyline class="cls-4" points="36.14 13.95 29.44 13.95 29.44 69.22 36.14 69.22 36.14 13.95"></polyline><rect class="cls-2" x="29.44" y="67.16" width="6.7" height="2.05"></rect><rect class="cls-1" x="47.76" y="68.26" width="5.69" height="11.78"></rect><rect class="cls-1" x="40.03" y="77.31" width="21.15" height="8.74" rx="2.28"></rect><rect class="cls-1" x="25.59" y="19.79" width="7.7" height="3.11" rx="1.55"></rect><rect class="cls-1" x="25.59" y="27.57" width="7.7" height="3.11" rx="1.55"></rect><rect class="cls-1" x="25.59" y="35.35" width="7.7" height="3.11" rx="1.55"></rect><rect class="cls-1" x="25.59" y="43.14" width="7.7" height="3.11" rx="1.55"></rect><rect class="cls-1" x="25.59" y="50.92" width="7.7" height="3.11" rx="1.55"></rect><rect class="cls-1" x="25.59" y="58.7" width="7.7" height="3.11" rx="1.55"></rect><rect class="cls-5" x="43.46" y="23.29" width="23.63" height="11.67"></rect><line class="cls-6" x1="46.14" y1="27.49" x2="64.41" y2="27.49"></line><line class="cls-6" x1="46.14" y1="31.04" x2="64.41" y2="31.04"></line></g></svg>