<svg id="Layer_1" data-name="Layer 1" xmlns="http://www.w3.org/2000/svg" viewBox="0 0 500 500" width="500" height="500" class="illustration"><defs><style>.cls-1{fill:#ffd44d;}.cls-2{fill:#f0457d;}.cls-3{fill:#db2868;}.cls-4{fill:#24285b;}.cls-5{fill:#fff;}.cls-6{fill:#f2f2f2;}.cls-7{fill:#0099f5;}</style></defs><title>Learning</title><path class="cls-1" d="M353.14,436.34H163.49a6,6,0,1,1,0-12H353.14a6,6,0,0,1,0,12Z"></path><path class="cls-1" d="M257,436.34h0a6,6,0,0,1-6-6l.28-51.24a6,6,0,0,1,6-6h0a6,6,0,0,1,6,6L263,430.37A6,6,0,0,1,257,436.34Z"></path><rect class="cls-2" x="138.27" y="60.79" width="240.66" height="328.81" rx="14.86"></rect><path class="cls-3" d="M365.83,60.79H350.72V342.12a13.1,13.1,0,0,1-13.1,13.1H138.27V376.5a13.09,13.09,0,0,0,13.09,13.1H365.83a13.09,13.09,0,0,0,13.09-13.1V73.88A13.09,13.09,0,0,0,365.83,60.79Z"></path><rect class="cls-4" x="121.08" y="88.56" width="34.38" height="7.93" rx="3.97"></rect><rect class="cls-4" x="121.08" y="126.46" width="34.38" height="7.93" rx="3.97"></rect><rect class="cls-4" x="121.08" y="164.37" width="34.38" height="7.93" rx="3.97"></rect><rect class="cls-4" x="121.08" y="202.27" width="34.38" height="7.93" rx="3.97"></rect><rect class="cls-4" x="121.08" y="240.18" width="34.38" height="7.93" rx="3.97"></rect><rect class="cls-4" x="121.08" y="278.09" width="34.38" height="7.93" rx="3.97"></rect><rect class="cls-4" x="121.08" y="315.99" width="34.38" height="7.93" rx="3.97"></rect><rect class="cls-4" x="121.08" y="353.9" width="34.38" height="7.93" rx="3.97"></rect><rect class="cls-5" x="179.7" y="130.33" width="156" height="76" rx="3"></rect><path class="cls-6" d="M332.7,130.33h-11v59a3,3,0,0,1-3,3h-139v11a3,3,0,0,0,3,3h150a3,3,0,0,0,3-3v-70A3,3,0,0,0,332.7,130.33Z"></path><rect class="cls-7" x="241.39" y="421.47" width="31.22" height="17.74" rx="4.36"></rect></svg>