<svg id="Layer_1" data-name="Layer 1" xmlns="http://www.w3.org/2000/svg" viewBox="0 0 500 500" width="500" height="500" class="illustration"><defs><style>.cls-1{fill:#f9bb0d;}.cls-2{fill:#fff;}.cls-3{fill:#0086f4;}.cls-4{fill:#0099f5;}</style></defs><title>Creative Tools</title><rect class="cls-1" x="382.9" y="131.94" width="13.93" height="43.23" rx="3" transform="translate(543.43 -236.31) rotate(90)"></rect><rect class="cls-1" x="368.79" y="85.01" width="13.93" height="43.23" rx="3" transform="translate(254.27 -264.59) rotate(56.04)"></rect><rect class="cls-1" x="103.16" y="132.06" width="13.93" height="43.23" rx="3" transform="translate(263.81 43.54) rotate(90)"></rect><rect class="cls-1" x="117.28" y="85.12" width="13.93" height="43.23" rx="3" transform="translate(282.18 63.32) rotate(123.96)"></rect><path class="cls-1" d="M239,109.43c-51.68,4.67-92.46,47.87-94.21,99.73a103.74,103.74,0,0,0,48.11,91.33,52,52,0,0,1,22.28,32l7.08,29.73,29.43-.62,29.43-.61L287,330.73a52.87,52.87,0,0,1,21.44-33.06A103.84,103.84,0,0,0,239,109.43Z"></path><path class="cls-2" d="M242.36,373.8H242a3,3,0,0,1-2.69-3.26c3.87-40.78,1.15-76.76-4.36-98l-2.17-.11c-12.64-.38-17.32-5.67-19-8.8a10.86,10.86,0,0,1,.38-11,12,12,0,0,1,10.9-5.35c2.44.12,4.75,1.42,6.86,3.86,2.72,3.13,5.25,8.47,7.44,15.63a117.68,117.68,0,0,0,20-1c3-7.2,6.87-13.21,11.19-16.62,4.15-3.27,7.67-3.24,9.9-2.67,4.63,1.22,7.26,5,6.56,9.37-1,6-7.85,12.3-23.25,15.25a69.61,69.61,0,0,0-4.15,24.27c-.76,26.51,1.55,74.55,1.57,75a3,3,0,1,1-6,.28c0-.48-2.34-48.76-1.58-75.35A75.1,75.1,0,0,1,257.1,272a127,127,0,0,1-16.05.7c5.51,22.35,8.06,57.83,4.22,98.37A3,3,0,0,1,242.36,373.8ZM224.25,253.19a5.87,5.87,0,0,0-5,2.59,4.92,4.92,0,0,0-.15,5c1.79,3.36,6.88,5.41,14,5.62h.12c-1.74-5.21-3.67-9.1-5.72-11.46a4.43,4.43,0,0,0-2.63-1.8Zm53.8-1.1a6.57,6.57,0,0,0-3.79,1.68c-2.6,2-5.27,5.75-7.6,10.45,10.49-2.8,14.11-7.19,14.46-9.38.28-1.73-1.24-2.4-2.18-2.65A3.29,3.29,0,0,0,278.05,252.09Z"></path><polygon class="cls-3" points="267.59 410.44 237.85 411.07 231.02 396.72 273.81 395.82 267.59 410.44"></polygon><path class="cls-4" d="M285.26,358.83,218,360.24a7,7,0,0,0-6.9,7.19l.17,8.07a7,7,0,0,0,7.19,6.89h.45a11.07,11.07,0,0,0,8.29,18.67L277.77,400a11.07,11.07,0,0,0,7.5-19h.45a7.06,7.06,0,0,0,6.9-7.2l-.17-8.07A7,7,0,0,0,285.26,358.83Z"></path><path class="cls-3" d="M285.26,358.83l-32.9.69,1.13,41,24.28-.51a11.07,11.07,0,0,0,7.5-19h.45a7.06,7.06,0,0,0,6.9-7.2l-.17-8.07A7,7,0,0,0,285.26,358.83Z"></path></svg>