<svg id="Layer_1" data-name="Layer 1" xmlns="http://www.w3.org/2000/svg" viewBox="0 0 500 500" width="500" height="500" class="illustration"><path d="M149.53,84.41H423.1a12,12,0,0,1,12,12V454.74a12,12,0,0,1-12,12H156.36a12,12,0,0,1-12-12V89.57A5.16,5.16,0,0,1,149.53,84.41Z" fill="#c3c7c9"></path><path d="M118.25,57h203L396.55,129V420.62a12,12,0,0,1-12,12H118.25a12,12,0,0,1-12-12V69A12,12,0,0,1,118.25,57Z" fill="#f2f2f2"></path><circle cx="181.25" cy="385.05" r="11.03" fill="#0099f5"></circle><circle cx="274.78" cy="385.05" r="11.03" fill="#0099f5"></circle><circle cx="228.02" cy="358.53" r="11.03" fill="#0099f5"></circle><circle cx="321.55" cy="332.02" r="11.03" fill="#0099f5"></circle><polyline points="181.25 385.05 228.02 358.54 274.78 385.05 321.55 332.02" fill="none" stroke="#0099f5" stroke-linecap="round" stroke-miterlimit="10" stroke-width="7.88"></polyline><path d="M155.78,158.9A103.71,103.71,0,0,0,284.21,311.16l-42.09-94.79Z" fill="#0099f5"></path><path d="M242.12,112.65a103.59,103.59,0,0,0-86.34,46.25l86.34,57.47,41.73-95A103.33,103.33,0,0,0,242.12,112.65Z" fill="#f0457d"></path><path d="M242.12,216.37l42.09,94.79A103.75,103.75,0,0,0,344.7,201Z" fill="#24285b"></path><path d="M309.6,137.61A103.72,103.72,0,0,1,154.16,271.34,103.72,103.72,0,1,0,309.6,137.61Z" opacity="0.15"></path><path d="M299.29,86.29,242.12,216.37l140.53-21A142.24,142.24,0,0,0,299.29,86.29Z" fill="#ffd44d"></path><path d="M321.18,56.6,397,129H323.76a2.58,2.58,0,0,1-2.58-2.59Z" fill="#dcdcdc"></path><path d="M166.87,78.79a3.94,3.94,0,0,0-3.94,3.94v26.65a12.14,12.14,0,0,1-12.12,12.12A11.78,11.78,0,0,1,139,109.73V56.26a15.12,15.12,0,0,1,30.24,0V57h7.88v-.77a23,23,0,1,0-46,0v53.47a19.66,19.66,0,0,0,19.64,19.64,20,20,0,0,0,20-20V82.73A4,4,0,0,0,166.87,78.79Z" fill="#24285b"></path></svg>