<svg xmlns="http://www.w3.org/2000/svg" viewBox="0 0 100 100" width="500" height="500" class="illustration"><defs><style>.cls-1{fill:#231f20;stroke-miterlimit:10;}.cls-1,.cls-2,.cls-3,.cls-4{stroke:#231f20;stroke-width:1.5px;}.cls-2{fill:#0099f5;}.cls-2,.cls-3,.cls-4{stroke-linejoin:bevel;}.cls-3{fill:#f0457d;}.cls-4{fill:none;}</style></defs><g id="Layer_2" data-name="Layer 2"><rect class="cls-1" x="62.76" y="45.89" width="25.92" height="14.14" rx="7.07"></rect><rect class="cls-1" x="62.76" y="70.63" width="25.92" height="14.14" rx="7.07"></rect><rect class="cls-1" x="12.19" y="16.59" width="34.69" height="18.92" rx="9.01"></rect><rect class="cls-2" x="12.19" y="13.85" width="34.69" height="18.92" rx="9.01"></rect><rect class="cls-1" x="29.53" y="45.89" width="25.92" height="14.14" rx="7.07"></rect><rect class="cls-2" x="29.53" y="43.84" width="25.92" height="14.14" rx="7.07"></rect><rect class="cls-1" x="29.53" y="70.63" width="25.92" height="14.14" rx="7.07"></rect><rect class="cls-3" x="29.53" y="68.58" width="25.92" height="14.14" rx="7.07"></rect><rect class="cls-3" x="62.76" y="43.84" width="25.92" height="14.14" rx="7.07"></rect><rect class="cls-2" x="62.76" y="68.58" width="25.92" height="14.14" rx="7.07"></rect><polyline class="cls-4" points="23.59 35.12 23.59 50 29.53 50"></polyline><polyline class="cls-4" points="23.59 50 23.59 76.25 29.53 76.25"></polyline><line class="cls-4" x1="55.45" y1="50.91" x2="62.76" y2="50.91"></line><line class="cls-4" x1="55.45" y1="76.25" x2="62.76" y2="76.25"></line></g></svg>