<svg id="Layer_1" data-name="Layer 1" xmlns="http://www.w3.org/2000/svg" viewBox="0 0 500 500" width="500" height="500" class="illustration"><defs><style>.cls-1{fill:#f2f2f2;}.cls-2{fill:#e2e2e2;}.cls-3{fill:#24285b;}.cls-4{fill:#fff;}.cls-5{fill:#ffd44d;}.cls-6{fill:#0086f4;}.cls-7{fill:#0099f5;}.cls-8{fill:#13183f;}.cls-9{fill:#db2868;}.cls-10{fill:#f0457d;}</style></defs><title>Strategy</title><path class="cls-1" d="M53.83,60.55h389a3,3,0,0,1,3,3V464.63a0,0,0,0,1,0,0h-395a0,0,0,0,1,0,0V63.55A3,3,0,0,1,53.83,60.55Z"></path><path class="cls-2" d="M445.87,64.42A3.87,3.87,0,0,0,442,60.55H54.7a3.87,3.87,0,0,0-3.87,3.87V129H385.19a3.88,3.88,0,0,1,3.88,3.88V464.63h56.8Z"></path><path class="cls-3" d="M53.83,39.9h389a3,3,0,0,1,3,3V91.54a0,0,0,0,1,0,0h-395a0,0,0,0,1,0,0V42.9A3,3,0,0,1,53.83,39.9Z"></path><path class="cls-4" d="M134.74,66A8.79,8.79,0,1,1,126,57.17,8.79,8.79,0,0,1,134.74,66Z"></path><path class="cls-4" d="M81.49,66a8.79,8.79,0,1,1-8.79-8.79A8.8,8.8,0,0,1,81.49,66Z"></path><path class="cls-4" d="M107.05,66a8.79,8.79,0,1,1-8.79-8.79A8.79,8.79,0,0,1,107.05,66Z"></path><polygon class="cls-5" points="354.67 348.46 250.34 348.46 250.34 198.89 128.9 198.89 128.9 191.89 257.34 191.89 257.34 341.46 354.67 341.46 354.67 348.46"></polygon><polygon class="cls-5" points="132.4 331.79 125.4 331.79 125.4 266.68 368.1 266.68 368.1 232.08 375.1 232.08 375.1 273.68 132.4 273.68 132.4 331.79"></polygon><rect class="cls-6" x="200.24" y="239.15" width="107.21" height="62.4" rx="15.34"></rect><rect class="cls-7" x="200.24" y="238.8" width="92.11" height="62.4" rx="15.34"></rect><circle class="cls-3" cx="371.6" cy="201.44" r="30.63"></circle><path class="cls-8" d="M396.13,219.78A30.62,30.62,0,0,1,360.18,173a30.62,30.62,0,1,0,35.95,46.75Z"></path><circle class="cls-3" cx="128.9" cy="348.72" r="30.63"></circle><path class="cls-8" d="M153.42,367.06a30.61,30.61,0,0,1-35.94-46.75,30.62,30.62,0,1,0,35.94,46.75Z"></path><rect class="cls-9" x="334.77" y="317.33" width="55.26" height="55.26" rx="9.29"></rect><rect class="cls-10" x="334.77" y="317.33" width="42.97" height="55.26" rx="9.29"></rect><path class="cls-9" d="M154.5,223c-58.62-1.53-46.68,11.22-48-45.42.26-2.53-1.12-3.8,2.74-8.24,4.42-2.71,4.53-1.2,7.11-1.6,43.37,1,46.62-6,45.42,18.64C161,206.92,165.51,222.35,154.5,223Z"></path><path class="cls-10" d="M142.21,223c-46.82.65-33.76,3.28-35.67-44.69.36-3.4-1.34-4.09,2.74-9,8.73-3.45,43.13-4.48,40.24,6.2C148.1,189.16,154.38,224.67,142.21,223Z"></path></svg>