<svg id="Layer_1" data-name="Layer 1" xmlns="http://www.w3.org/2000/svg" viewBox="0 0 500 500" width="500" height="500" class="illustration"><defs><style>.cls-1{fill:#e2e2e2;}.cls-2{fill:#c3c7c9;}.cls-3{fill:#f0457d;}.cls-4{fill:#24285b;}.cls-5{fill:#ffd44d;}.cls-6{fill:#0099f5;}</style></defs><title>Idea</title><path class="cls-1" d="M346.1,263.27V236.73a6.57,6.57,0,0,0-5.44-6.47l-19.16-3.35a6.57,6.57,0,0,1-4.94-4l0-.07a6.58,6.58,0,0,1,.69-6.29l11.19-15.92a6.57,6.57,0,0,0-.74-8.42l-18.76-18.77a6.57,6.57,0,0,0-8.43-.73l-15.92,11.18a6.58,6.58,0,0,1-6.29.69l-.06,0a6.57,6.57,0,0,1-4-4.93l-3.35-19.17a6.57,6.57,0,0,0-6.47-5.43H237.89a6.57,6.57,0,0,0-6.48,5.43l-3.35,19.17a6.55,6.55,0,0,1-4,4.93l-.06,0a6.58,6.58,0,0,1-6.29-.69l-15.92-11.18a6.57,6.57,0,0,0-8.43.73l-18.76,18.77a6.56,6.56,0,0,0-.73,8.42l11.18,15.92a6.58,6.58,0,0,1,.69,6.29l0,.07a6.57,6.57,0,0,1-4.94,4l-19.16,3.35a6.58,6.58,0,0,0-5.44,6.47v26.54a6.58,6.58,0,0,0,5.44,6.47l19.16,3.35a6.57,6.57,0,0,1,4.94,4l0,.07a6.58,6.58,0,0,1-.69,6.29l-11.18,15.92a6.56,6.56,0,0,0,.73,8.42l18.76,18.77a6.58,6.58,0,0,0,8.43.73l15.92-11.18a6.58,6.58,0,0,1,6.29-.69l.06,0a6.57,6.57,0,0,1,4,4.93l3.35,19.17a6.57,6.57,0,0,0,6.48,5.43h26.54a6.57,6.57,0,0,0,6.47-5.43l3.35-19.17a6.57,6.57,0,0,1,4-4.93l.06,0a6.58,6.58,0,0,1,6.29.69l15.92,11.18a6.58,6.58,0,0,0,8.43-.73l18.76-18.77a6.57,6.57,0,0,0,.74-8.42l-11.19-15.92a6.58,6.58,0,0,1-.69-6.29l0-.07a6.57,6.57,0,0,1,4.94-4l19.16-3.35A6.57,6.57,0,0,0,346.1,263.27Zm-96.05,20.48a33.77,33.77,0,1,1,34.86-34.86A33.88,33.88,0,0,1,250.05,283.75Z"></path><path class="cls-2" d="M255.67,155.06h8.76a6.57,6.57,0,0,1,6.47,5.43l3.35,19.17a6.51,6.51,0,0,0,2.19,3.83l-.63.44a6.58,6.58,0,0,1-6.29.69l-.07,0a6.57,6.57,0,0,1-4-4.93l-3.35-19.17A6.57,6.57,0,0,0,255.67,155.06Zm-8.9,128.43a33.78,33.78,0,0,1,0-67c-1.08-.14-2.17-.23-3.28-.27a33.77,33.77,0,1,0-2.21,67.51A34.18,34.18,0,0,0,246.77,283.49ZM209,183.93a6.58,6.58,0,0,0,6.29.69l.07,0a6.74,6.74,0,0,0,1.77-1.1l-15.29-10.74a6.59,6.59,0,0,0-8.12.45Zm6.36,131.48-.07,0a6.58,6.58,0,0,0-6.29.69L193.71,326.8a6.59,6.59,0,0,0,8.12.45l15.29-10.74A6.74,6.74,0,0,0,215.35,315.41Zm125.31-85.15-19.16-3.35a6.57,6.57,0,0,1-4.94-4l0-.07a6.58,6.58,0,0,1,.69-6.29l11.19-15.92a6.57,6.57,0,0,0-.74-8.42l-18.76-18.77a6.57,6.57,0,0,0-8.43-.73l-.64.45.31.28,18.77,18.77a6.58,6.58,0,0,1,.73,8.42l-11.18,15.92a6.52,6.52,0,0,0-.69,6.29l0,.07a6.57,6.57,0,0,0,4.94,4l19.16,3.35a6.57,6.57,0,0,1,5.44,6.47v26.54a6.57,6.57,0,0,1-5.44,6.47l-19.16,3.35a6.57,6.57,0,0,0-4.94,4l0,.07a6.52,6.52,0,0,0,.69,6.29l11.18,15.92a6.58,6.58,0,0,1-.73,8.42l-18.77,18.77-.31.28.64.45a6.58,6.58,0,0,0,8.43-.73l18.76-18.77a6.57,6.57,0,0,0,.74-8.42l-11.19-15.92a6.58,6.58,0,0,1-.69-6.29l0-.07a6.57,6.57,0,0,1,4.94-4l19.16-3.35a6.57,6.57,0,0,0,5.44-6.47V236.73A6.57,6.57,0,0,0,340.66,230.26Zm-64.85,85.81a6.58,6.58,0,0,0-6.29-.69l-.07,0a6.55,6.55,0,0,0-4,4.93l-3.35,19.17a6.57,6.57,0,0,1-6.47,5.43h8.76a6.57,6.57,0,0,0,6.47-5.43l3.35-19.17a6.51,6.51,0,0,1,2.19-3.83Z"></path><path class="cls-3" d="M79.48,252.06h-38C41.48,137.09,135,43.55,250,43.55h1.44l-.26,38-1.18,0C156,81.55,79.48,158,79.48,252.06Z"></path><path class="cls-4" d="M458.5,252.06h-38A170.49,170.49,0,0,0,251.17,81.57l.26-38A208.49,208.49,0,0,1,458.5,252.06Z"></path><path class="cls-5" d="M250.19,460.57l0-38C344.09,422.48,420.5,346,420.5,252.06h38A208.51,208.51,0,0,1,250.19,460.57Z"></path><path class="cls-6" d="M250,460.57C135,460.57,41.48,367,41.48,252.06h38c0,94,76.47,170.5,170.47,170.51h.23v19l.21,19Z"></path><path class="cls-3" d="M244.92,37.55l-.49,48A2.21,2.21,0,0,0,248,87.29L279.6,63.64a2.21,2.21,0,0,0,0-3.51l-31.15-24.3A2.21,2.21,0,0,0,244.92,37.55Z"></path><path class="cls-4" d="M464.43,242.24l-47.95-.48a2.2,2.2,0,0,0-1.79,3.52l23.65,31.64a2.21,2.21,0,0,0,3.51,0l24.29-31.15A2.21,2.21,0,0,0,464.43,242.24Z"></path><path class="cls-5" d="M257.47,464.57l.49-47.95a2.21,2.21,0,0,0-3.53-1.79l-31.64,23.66a2.2,2.2,0,0,0,0,3.5l31.16,24.3A2.21,2.21,0,0,0,257.47,464.57Z"></path><path class="cls-6" d="M36.26,259.25l47.95.49A2.2,2.2,0,0,0,86,256.22L62.34,224.58a2.2,2.2,0,0,0-3.5,0l-24.3,31.15A2.2,2.2,0,0,0,36.26,259.25Z"></path></svg>