<svg xmlns="http://www.w3.org/2000/svg" viewBox="0 0 100 100" width="500" height="500" class="illustration"><g id="Layer_1" data-name="Layer 1"><path d="M60.72,53.71H51.39V79.85l26.41.28V69.91a5.11,5.11,0,0,0,2.9.9,5.16,5.16,0,1,0,0-10.32,5.11,5.11,0,0,0-2.9.9l0-7.55-8.83,0" fill="#0099f5"></path><path d="M51.62,35.69l.08-8.4-9.79-.1a5.16,5.16,0,0,0,1.33-3.42,5.22,5.22,0,1,0-9.18,3.34L25.42,27,25.34,35a5.22,5.22,0,1,0-.09,8.94l-.1,9.4,26.28.27.11-9.86" fill="#f0457d"></path><path d="M78,27.56l-9.22-.1a5.22,5.22,0,1,0-9.11-3.53A5.24,5.24,0,0,0,61,27.38l-9.22-.1-.08,8.41a5.22,5.22,0,1,0-.09,8l-.1,9.86,9.25.1a5.22,5.22,0,1,0,7.79.08l9.25.09Z" fill="#ffd44d"></path><path d="M41.63,53.47l-7.85-.08-8.65-.09-.08,7.94A5.22,5.22,0,1,0,25,70.18l-.1,9.4,8.67.09a5.08,5.08,0,1,0,9.32,2.76,5.18,5.18,0,0,0-.78-2.67l9.08.09.1-9.86.08-8,.09-8.4Z" fill="#0064f4"></path></g><g id="Layer_2" data-name="Layer 2"><path d="M51.59,35.69l.09-8.41-9.79-.1A5.22,5.22,0,1,0,34,27.1L25.4,27l-.09,8a5.22,5.22,0,1,0-.09,8.94l-.09,9.4,26.28.27.1-9.86" fill="none" stroke="#231f20" stroke-miterlimit="10" stroke-width="1.5"></path><path d="M78,34.8,78,27.56l-9.22-.1a5.22,5.22,0,1,0-9.11-3.53A5.24,5.24,0,0,0,61,27.38l-9.22-.1-.08,8.41a5.22,5.22,0,1,0-.09,8l-.1,9.86,9.25.1a5.22,5.22,0,1,0,7.79.08l9.25.09.12-12.17" fill="none" stroke="#231f20" stroke-miterlimit="10" stroke-width="1.5"></path><polyline points="33.34 65.64 37.95 70.4 43.61 62.39" fill="none" stroke="#fff" stroke-miterlimit="10" stroke-width="1.5"></polyline><path d="M41.63,53.47l-7.85-.08-8.65-.09-.08,7.94A5.22,5.22,0,1,0,25,70.18l-.1,9.4,8.67.09a5.08,5.08,0,1,0,9.32,2.76,5.18,5.18,0,0,0-.78-2.67l9.08.09.1-9.86.08-8,.09-8.4Z" fill="none" stroke="#231f20" stroke-miterlimit="10" stroke-width="1.5"></path><path d="M60.72,53.71H51.39V79.85l26.41.28V69.91a5.11,5.11,0,0,0,2.9.9,5.16,5.16,0,1,0,0-10.32,5.11,5.11,0,0,0-2.9.9l0-7.55-8.83,0" fill="none" stroke="#231f20" stroke-miterlimit="10" stroke-width="1.5"></path></g></svg>