<svg id="Layer_1" data-name="Layer 1" xmlns="http://www.w3.org/2000/svg" viewBox="0 0 500 500" width="500" height="500" class="illustration"><defs><style>.cls-1{fill:none;}.cls-2{fill:#0099f5;}.cls-3{fill:#f0457d;}.cls-4{fill:#4bc487;}.cls-5{fill:#f9bb0d;}.cls-6{fill:#e2e2e2;}.cls-7{opacity:0.09;isolation:isolate;}.cls-8{fill:#13183f;}.cls-9{fill:#24285b;}</style></defs><title>Startups</title><path class="cls-1" d="M249.55,255.56l49.59-55.5a76.09,76.09,0,0,0-49.72-19.54Z"></path><path class="cls-2" d="M67.89,256.89H171.74A76.22,76.22,0,0,1,198.35,199l-69.17-77.42A179.89,179.89,0,0,0,67.89,256.89Z"></path><path class="cls-3" d="M248.15,76.63a179.5,179.5,0,0,0-119,45L198.35,199a76.09,76.09,0,0,1,49.8-18.53l.86,0,.17-103.86Z"></path><path class="cls-4" d="M426.77,232.65a180.07,180.07,0,0,0-58.47-110l-69.16,77.42a76.19,76.19,0,0,1,25.42,56.83H428.41A179.54,179.54,0,0,0,426.77,232.65Z"></path><path class="cls-5" d="M249.18,76.64,249,180.5l.41,0-.18-103.87Z"></path><path class="cls-5" d="M292.27,82.1a179.62,179.62,0,0,0-43-5.45l.18,103.87a76.09,76.09,0,0,1,49.72,19.54l69.16-77.42A180.08,180.08,0,0,0,292.27,82.1Z"></path><circle class="cls-6" cx="248.88" cy="258.62" r="129.06"></circle><path class="cls-7" d="M368,209a129,129,0,0,1-246.67,30.16A129,129,0,1,0,368,209Z"></path><rect class="cls-8" x="154" y="379.4" width="189.11" height="45.96" rx="9"></rect><rect class="cls-9" x="154.33" y="379.4" width="157.01" height="45.96" rx="9"></rect><path class="cls-9" d="M230.62,251h35.86L252,91.07c-.73-8.1-6.07-8.1-6.8,0Z"></path><circle class="cls-9" cx="248.88" cy="255.56" r="29"></circle><path class="cls-8" d="M272.1,272.93a29,29,0,0,1-34-44.27,29,29,0,1,0,34,44.27Z"></path></svg>