<svg xmlns="http://www.w3.org/2000/svg" viewBox="0 0 100 100" width="500" height="500" class="illustration"><defs><style>.cls-1{fill:#f0457d;}.cls-2{fill:#ffd44d;}.cls-3{fill:#ff9515;}.cls-4{fill:#0064f4;}.cls-5{fill:#0099f5;}.cls-6{fill:none;stroke:#231f20;stroke-linejoin:round;stroke-width:1.5px;}</style></defs><g id="Layer_1" data-name="Layer 1"><path class="cls-1" d="M56.84,34a9.78,9.78,0,0,1,8,9.62h0A4.38,4.38,0,0,1,60.45,48H47.83a4.38,4.38,0,0,1-4.38-4.39h0A9.8,9.8,0,0,1,51.56,34"></path><rect class="cls-2" x="46.97" y="16.96" width="14.13" height="16.61" rx="6.92"></rect><path class="cls-3" d="M57,33v2.12a2.81,2.81,0,0,1-2.81,2.81h0a2.81,2.81,0,0,1-2.81-2.81V33.05"></path><path class="cls-4" d="M78.23,66.16a9.8,9.8,0,0,1,8,9.63h0a4.38,4.38,0,0,1-4.39,4.39H69.22a4.38,4.38,0,0,1-4.38-4.39h0A9.8,9.8,0,0,1,73,66.14"></path><rect class="cls-2" x="68.36" y="49.13" width="14.13" height="16.61" rx="6.92"></rect><path class="cls-3" d="M78.34,65.16v2.12a2.81,2.81,0,0,1-2.81,2.81h0a2.81,2.81,0,0,1-2.81-2.81V65.22"></path><path class="cls-5" d="M36,66.18a9.79,9.79,0,0,1,8,9.63h0a4.38,4.38,0,0,1-4.39,4.38H27a4.38,4.38,0,0,1-4.38-4.38h0a9.78,9.78,0,0,1,8.11-9.65"></path><rect class="cls-2" x="26.09" y="49.14" width="14.13" height="16.61" rx="6.92"></rect><path class="cls-3" d="M36.07,65.17v2.12a2.81,2.81,0,0,1-2.81,2.81h0a2.81,2.81,0,0,1-2.81-2.81V65.23"></path><circle class="cls-3" cx="54.05" cy="62.49" r="4.56"></circle></g><g id="Layer_2" data-name="Layer 2"><path class="cls-6" d="M47.76,35.68a9.7,9.7,0,0,1,3.76-1.51"></path><path class="cls-6" d="M56.8,34.2a9.79,9.79,0,0,1,8,9.63h0a4.38,4.38,0,0,1-4.39,4.38H47.79a4.38,4.38,0,0,1-4.38-4.38h0A9.76,9.76,0,0,1,45,38.51"></path><rect class="cls-6" x="47.03" y="17.16" width="14.13" height="16.61" rx="6.92"></rect><path class="cls-6" d="M57,33.13v2.12a2.81,2.81,0,0,1-2.81,2.81h0a2.81,2.81,0,0,1-2.81-2.81V33.19"></path><path class="cls-6" d="M78.19,66.36a9.8,9.8,0,0,1,8,9.63h0a4.38,4.38,0,0,1-4.39,4.39H69.18A4.39,4.39,0,0,1,64.79,76h0a9.74,9.74,0,0,1,1.57-5.31,7.38,7.38,0,0,1,2.79-2.83,12.67,12.67,0,0,1,3.75-1.51"></path><rect class="cls-6" x="68.42" y="49.33" width="14.13" height="16.61" rx="6.92"></rect><path class="cls-6" d="M78.4,65.3v2.11a2.81,2.81,0,0,1-2.81,2.82h0a2.81,2.81,0,0,1-2.81-2.82V65.35"></path><path class="cls-6" d="M35.92,66.38a9.79,9.79,0,0,1,8,9.63h0a4.39,4.39,0,0,1-4.39,4.38H26.91A4.39,4.39,0,0,1,22.52,76h0a9.77,9.77,0,0,1,1.57-5.32,7.38,7.38,0,0,1,2.79-2.83,12.65,12.65,0,0,1,3.75-1.5"></path><rect class="cls-6" x="26.15" y="49.34" width="14.13" height="16.61" rx="6.92"></rect><path class="cls-6" d="M36.13,65.31v2.12a2.81,2.81,0,0,1-2.81,2.81h0a2.81,2.81,0,0,1-2.81-2.81V65.37"></path><line class="cls-6" x1="50.22" y1="64.96" x2="42.24" y2="70.56"></line><line class="cls-6" x1="54.04" y1="48.37" x2="54.04" y2="57.93"></line><line class="cls-6" x1="57.88" y1="64.97" x2="66.08" y2="70.72"></line><circle class="cls-6" cx="54.02" cy="62.49" r="4.56"></circle><polyline class="cls-6" points="32.28 78.58 32.3 78.58 32.33 78.58"></polyline><polyline class="cls-6" points="67.91 78.58 67.93 78.58 67.95 78.58"></polyline></g></svg>