<svg xmlns="http://www.w3.org/2000/svg" viewBox="0 0 500 500" width="500" height="500" class="illustration"><g style="isolation: isolate;"><g id="Layer_1" data-name="Layer 1"><path d="M154.24,400.84A178.53,178.53,0,0,1,250,71.64" fill="none" stroke="#24285b" stroke-linecap="round" stroke-linejoin="round" stroke-width="14"></path><path d="M346,99.62a178.53,178.53,0,0,1-96,329.05" fill="none" stroke="#24285b" stroke-linecap="round" stroke-linejoin="round" stroke-width="14"></path><path d="M286.89,65.67l-48-27.74a7,7,0,0,0-10.47,6V99.45a7,7,0,0,0,10.47,6l48-27.74A7,7,0,0,0,286.89,65.67Z" fill="#f0457d"></path><path d="M217.07,432.81l46.22,26.69a7,7,0,0,0,10.46-6V400.09a7,7,0,0,0-10.46-6l-46.22,26.69A7,7,0,0,0,217.07,432.81Z" fill="#f0457d"></path><path d="M213,294.44v4.49H126.12c-2.15-20.5,17-33,35.69-32.95,9.66.11,23.23-1,32.11,3.32C204.13,273.46,213.09,282.93,213,294.44Z" fill="#0099f5"></path><path d="M213,294.44c.09-11.51-8.87-21-19.08-25.14-8.88-4.3-22.45-3.21-32.11-3.32a42.83,42.83,0,0,0-16.93,3.46c1.43-.14,2.85-.21,4.28-.21,9.66.11,23.22-1,32.11,3.32,10.21,4.16,19.17,13.63,19.08,25.14v1.24H213Z" opacity="0.09" style="isolation: isolate;"></path><path d="M168.66,280.7,160,286a1,1,0,0,1-1.44-.37l-9.38-16.08a1,1,0,0,1,.42-1.45l8.63-4.52a1,1,0,0,1,1.37.38L169,279.26A1.05,1.05,0,0,1,168.66,280.7Z" opacity="0.09" style="isolation: isolate;"></path><path d="M170.46,280.7l8.67,5.26a1,1,0,0,0,1.44-.37L190,269.51a1,1,0,0,0-.42-1.45l-8.63-4.52a1,1,0,0,0-1.37.38l-9.42,15.34A1.05,1.05,0,0,0,170.46,280.7Z" opacity="0.09" style="isolation: isolate;"></path><path d="M177.62,279.58l-8.06-2.95h0l-8.06,2.95,5.58,9.82L165,298.92h9.14L172,289.4Z" fill="#24285b"></path><path d="M169.56,278.13a9.59,9.59,0,0,1-9.6-9.59V243c.22-12.61,19-12.62,19.2,0v25.52A9.6,9.6,0,0,1,169.56,278.13Z" fill="#ffbeb3"></path><path d="M178.69,271.48c-2.72,8.82-15.62,8.72-18.27,0C164.3,277.06,174.65,277.25,178.69,271.48Z" fill="#f9a498"></path><path d="M168.74,278.63l-8,4.82a1,1,0,0,1-1.32-.33l-8.59-14.74a1,1,0,0,1,.38-1.33l7.91-4.14a1,1,0,0,1,1.26.34l8.63,14.07A1,1,0,0,1,168.74,278.63Z" fill="#0099f5"></path><path d="M170.39,278.63l8,4.82a1,1,0,0,0,1.32-.33l8.59-14.74a1,1,0,0,0-.39-1.33l-7.9-4.14a1,1,0,0,0-1.26.34l-8.63,14.07A1,1,0,0,0,170.39,278.63Z" fill="#0099f5"></path><path d="M150.46,233.59a4.65,4.65,0,0,0-5.59-3.74c-3,.65-3,3.42-2.53,5.69,0,.12,1.49,6.27,2.35,7.57s2.1,3.75,4.19,3c1.38-.46,2.19-2.92,2.52-4.7S150.46,233.59,150.46,233.59Z" fill="#ffbeb3"></path><path d="M188.26,233.5a4.63,4.63,0,0,1,5.58-3.74c3,.65,3.27,3.5,2.82,5.77,0,.12-1.61,5.81-2.35,7.57-.61,1.44-2.27,4-4.42,3.09-1.35-.55-2.25-3-2.58-4.82S188.26,233.5,188.26,233.5Z" fill="#ffbeb3"></path><path d="M191.16,216.48c0-9.87-6.12-19.78-22.31-19.78s-22.06,10.84-22.06,20.71c0,.52,0,27.36,3.09,33.52s11.8,12.45,19.52,12.48c8.45,0,16-5.39,19.6-12.48S191.16,216.48,191.16,216.48Z" fill="#ffbeb3"></path><path d="M153,218.7l.42.3c.45.42-1.78,5.38-1.13,5.4,3.21.68,7.06-6.27,10.19-5.3,5.51,1.72,15.89,15.62,26.07,15.35,2.68-2.58,2.59-18,2.59-18,0-9.87-6.12-19.78-22.31-19.78-13.41,0-19.73,7.45-21.51,15.61A10.12,10.12,0,0,1,153,218.7Z" fill="#f9a498"></path><path d="M188.27,252.24a1.63,1.63,0,0,1,.11-.17c-.19.14-.38.25-.56.38Z" fill="#efe8e4" style="mix-blend-mode: multiply;"></path><path d="M173.07,261.33c-7.72,0-16.38-6.32-19.52-12.48s-3.09-33-3.09-33.52a21.5,21.5,0,0,1,4-12.75,20.63,20.63,0,0,1,1-2.37c-6.18,4-8.68,10.79-8.68,17.2,0,.52,0,27.36,3.09,33.52s11.8,12.45,19.52,12.48a21,21,0,0,0,12-3.86A20.44,20.44,0,0,1,173.07,261.33Z" fill="#f9a498"></path><path d="M194.78,214.12c-2-10.86-10.87-18.74-25.38-18.65s-24,9-25.87,19a84.86,84.86,0,0,0-1.11,17.38c2.45-2,3.46-2.27,4.64-1.8.82,8.87,2.75,8.74,2.75,8.74s.17-6,.57-10,6.91-4.71,10.17-11.59c10.33-.45,16.84,12.77,28.16,13.49-1.12,6.55,1.36,9.15,1.36,9.15s.26-5.41,1.18-8a2.73,2.73,0,0,1,4.34-1.26A58,58,0,0,0,194.78,214.12Z" fill="#9c5631"></path><g opacity="0.5" style="mix-blend-mode: soft-light;"><path d="M194.78,214.12c-2-10.86-10.87-18.74-25.38-18.65-12.69.08-21.57,6.92-24.83,15.39,4.06-7,12.22-12.2,23.31-12.27,14.51-.09,23.39,7.79,25.38,18.66a65.35,65.35,0,0,1,1.08,12.8,2.8,2.8,0,0,1,1.25.56A58,58,0,0,0,194.78,214.12Z" fill="#fff"></path></g><g opacity="0.1" style="mix-blend-mode: multiply;"><path d="M160.55,212c-3.26,6.88-13.76,13.37-18.13,14.66,0-.22,0-.49,0-.72a56.75,56.75,0,0,0,0,5.88c2.45-2,3.46-2.27,4.64-1.8.82,8.87,2.75,8.74,2.75,8.74s.17-6,.57-10,6.91-4.71,10.17-11.59c10.28-.45,16.79,12.65,28,13.47C180.29,227.8,170.88,211.59,160.55,212Z" fill="#afaaa8"></path></g><path d="M374.05,294.44v4.49H287.16c-2.14-20.5,17-33,35.7-32.95,9.66.11,23.22-1,32.11,3.32C365.18,273.46,374.14,282.93,374.05,294.44Z" fill="#f0457d"></path><path d="M374.05,294.44c.09-11.51-8.87-21-19.08-25.14-8.89-4.3-22.45-3.21-32.11-3.32a42.83,42.83,0,0,0-16.93,3.46c1.42-.14,2.85-.21,4.28-.21,9.66.11,23.22-1,32.11,3.32,10.21,4.16,19.16,13.63,19.08,25.14v1.24h12.65Z" opacity="0.09" style="isolation: isolate;"></path><path d="M329.71,280.7,321,286a1,1,0,0,1-1.44-.37l-9.38-16.08a1,1,0,0,1,.42-1.45l8.63-4.52a1,1,0,0,1,1.37.38l9.42,15.34A1.05,1.05,0,0,1,329.71,280.7Z" opacity="0.09" style="isolation: isolate;"></path><path d="M331.51,280.7l8.67,5.26a1,1,0,0,0,1.44-.37L351,269.51a1,1,0,0,0-.42-1.45L342,263.54a1,1,0,0,0-1.37.38l-9.42,15.34A1.05,1.05,0,0,0,331.51,280.7Z" opacity="0.09" style="isolation: isolate;"></path><path d="M338.67,279.58l-8.06-2.95h0l-8.06,2.95,5.58,9.82-2.1,9.52h9.15l-2.09-9.52Z" fill="#24285b"></path><path d="M330.61,278.13a9.59,9.59,0,0,1-9.6-9.59V243c.21-12.61,19-12.62,19.2,0v25.52A9.6,9.6,0,0,1,330.61,278.13Z" fill="#ffbeb3"></path><path d="M339.74,271.48c-2.72,8.82-15.62,8.72-18.27,0C325.35,277.06,335.7,277.25,339.74,271.48Z" fill="#f9a498"></path><path d="M329.79,278.63l-8,4.82a1,1,0,0,1-1.32-.33l-8.59-14.74a1,1,0,0,1,.38-1.33l7.91-4.14a1,1,0,0,1,1.26.34l8.63,14.07A1,1,0,0,1,329.79,278.63Z" fill="#f0457d"></path><path d="M331.44,278.63l7.94,4.82a1,1,0,0,0,1.32-.33l8.59-14.74a1,1,0,0,0-.38-1.33L341,262.91a1,1,0,0,0-1.25.34l-8.63,14.07A1,1,0,0,0,331.44,278.63Z" fill="#f0457d"></path><path d="M311.51,233.59a4.65,4.65,0,0,0-5.59-3.74c-3,.65-3,3.42-2.53,5.69,0,.12,1.49,6.27,2.34,7.57s2.11,3.75,4.2,3c1.38-.46,2.19-2.92,2.52-4.7S311.51,233.59,311.51,233.59Z" fill="#ffbeb3"></path><path d="M349.31,233.5a4.63,4.63,0,0,1,5.58-3.74c3,.65,3.27,3.5,2.82,5.77,0,.12-1.61,5.81-2.35,7.57-.61,1.44-2.27,4-4.42,3.09-1.35-.55-2.25-3-2.58-4.82S349.31,233.5,349.31,233.5Z" fill="#ffbeb3"></path><path d="M352.21,216.48c0-9.87-6.12-19.78-22.31-19.78s-22.06,10.84-22.06,20.71c0,.52,0,27.36,3.09,33.52s11.8,12.45,19.52,12.48c8.45,0,16.05-5.39,19.6-12.48S352.21,216.48,352.21,216.48Z" fill="#ffbeb3"></path><path d="M314.07,218.7l.42.3c.45.42-1.78,5.38-1.13,5.4,3.21.68,7.05-6.27,10.19-5.3,5.51,1.72,15.89,15.62,26.07,15.35,2.68-2.58,2.59-18,2.59-18,0-9.87-6.12-19.78-22.31-19.78-13.41,0-19.73,7.45-21.51,15.61A10.12,10.12,0,0,1,314.07,218.7Z" fill="#f9a498"></path><path d="M349.32,252.24l.1-.17c-.18.14-.37.25-.55.38Z" fill="#efe8e4" style="mix-blend-mode: multiply;"></path><path d="M334.12,261.33c-7.73,0-16.38-6.32-19.52-12.48s-3.09-33-3.09-33.52a21.5,21.5,0,0,1,4-12.75,20.57,20.57,0,0,1,1-2.37c-6.17,4-8.67,10.79-8.67,17.2,0,.52,0,27.36,3.09,33.52s11.8,12.45,19.52,12.48a21,21,0,0,0,12-3.86A20.44,20.44,0,0,1,334.12,261.33Z" fill="#f9a498"></path><path d="M355.83,214.12c-2-10.86-10.87-18.74-25.38-18.65s-24,9-25.87,19a84.86,84.86,0,0,0-1.11,17.38c2.45-2,3.46-2.27,4.64-1.8.81,8.87,2.75,8.74,2.75,8.74s.17-6,.57-10,6.91-4.71,10.17-11.59c10.32-.45,16.84,12.77,28.16,13.49-1.12,6.55,1.36,9.15,1.36,9.15s.26-5.41,1.18-8a2.73,2.73,0,0,1,4.34-1.26A58,58,0,0,0,355.83,214.12Z" fill="#9c5631"></path><g opacity="0.5" style="mix-blend-mode: soft-light;"><path d="M355.83,214.12c-2-10.86-10.87-18.74-25.38-18.65-12.69.08-21.57,6.92-24.84,15.39,4.07-7,12.23-12.2,23.32-12.27,14.51-.09,23.39,7.79,25.38,18.66a65.35,65.35,0,0,1,1.08,12.8,2.8,2.8,0,0,1,1.25.56A58,58,0,0,0,355.83,214.12Z" fill="#fff"></path></g><g opacity="0.1" style="mix-blend-mode: multiply;"><path d="M321.6,212c-3.26,6.88-13.76,13.37-18.13,14.66,0-.22,0-.49,0-.72a56.75,56.75,0,0,0,0,5.88c2.45-2,3.46-2.27,4.64-1.8.81,8.87,2.75,8.74,2.75,8.74s.17-6,.57-10,6.91-4.71,10.17-11.59c10.28-.45,16.79,12.65,28,13.47C341.34,227.8,331.92,211.59,321.6,212Z" fill="#afaaa8"></path></g><path d="M312.5,315v6.44H187.74C184.66,292,212.12,274.09,239,274.15c13.87.16,33.35-1.4,46.11,4.77C299.76,284.89,312.62,298.49,312.5,315Z" fill="#ffd44d"></path><path d="M312.5,315c.12-16.53-12.74-30.13-27.4-36.1-12.76-6.17-32.24-4.61-46.11-4.77a61.31,61.31,0,0,0-24.3,5c2-.2,4.09-.31,6.13-.31,13.88.16,33.36-1.4,46.12,4.77,14.66,6,27.52,19.57,27.39,36.1v1.78H312.5Z" opacity="0.09" style="isolation: isolate;"></path><path d="M248.83,295.28l-12.45,7.56a1.5,1.5,0,0,1-2.07-.53l-13.46-23.1a1.5,1.5,0,0,1,.59-2.08l12.4-6.49a1.51,1.51,0,0,1,2,.54l13.52,22A1.5,1.5,0,0,1,248.83,295.28Z" opacity="0.09" style="isolation: isolate;"></path><path d="M251.41,295.28l12.46,7.56a1.51,1.51,0,0,0,2.07-.53l13.46-23.1a1.5,1.5,0,0,0-.6-2.08l-12.39-6.49a1.5,1.5,0,0,0-2,.54l-13.53,22A1.5,1.5,0,0,0,251.41,295.28Z" opacity="0.09" style="isolation: isolate;"></path><path d="M261.69,293.68l-11.57-4.25h0l-11.57,4.25,8,14.1-3,13.67h13.14l-3-13.67Z" fill="#24285b"></path><path d="M250.12,291.6a13.78,13.78,0,0,1-13.78-13.78V241.18c.31-18.11,27.26-18.13,27.56,0v36.64A13.78,13.78,0,0,1,250.12,291.6Z" fill="#ffbeb3"></path><path d="M263.24,282.05c-3.92,12.66-22.44,12.51-26.24,0C242.57,290.06,257.43,290.34,263.24,282.05Z" fill="#f9a498"></path><path d="M248.94,292.32l-11.41,6.92a1.36,1.36,0,0,1-1.89-.48L223.3,277.59a1.37,1.37,0,0,1,.55-1.9l11.36-5.95a1.37,1.37,0,0,1,1.8.49l12.39,20.2A1.37,1.37,0,0,1,248.94,292.32Z" fill="#ffd44d"></path><path d="M251.31,292.32l11.41,6.92a1.38,1.38,0,0,0,1.9-.48L277,277.59a1.36,1.36,0,0,0-.54-1.9l-11.36-5.95a1.36,1.36,0,0,0-1.8.49l-12.4,20.2A1.38,1.38,0,0,0,251.31,292.32Z" fill="#ffd44d"></path><path d="M222.69,227.64a6.68,6.68,0,0,0-8-5.38c-4.26.94-4.27,4.91-3.62,8.18,0,.17,2.13,9,3.36,10.86s3,5.4,6,4.39c2-.67,3.15-4.2,3.62-6.75S222.69,227.64,222.69,227.64Z" fill="#ffbeb3"></path><path d="M277,227.5a6.67,6.67,0,0,1,8-5.37c4.27.93,4.69,5,4,8.29,0,.18-2.3,8.35-3.37,10.87-.87,2.07-3.25,5.72-6.35,4.44-1.93-.8-3.22-4.37-3.69-6.92S277,227.5,277,227.5Z" fill="#ffbeb3"></path><path d="M281.14,203.06c0-14.17-8.78-28.39-32-28.39s-31.69,15.56-31.69,29.74c0,.74-.07,39.28,4.44,48.13s16.94,17.88,28,17.92c12.13.05,23-7.75,28.13-17.92S281.14,203.06,281.14,203.06Z" fill="#ffbeb3"></path><path d="M226.37,206.25l.61.44c.64.6-2.56,7.72-1.63,7.75,4.61,1,10.13-9,14.63-7.61,7.92,2.47,22.82,22.43,37.44,22,3.84-3.7,3.72-25.81,3.72-25.81,0-14.17-8.78-28.39-32-28.39-19.26,0-28.34,10.68-30.89,22.41A14.52,14.52,0,0,1,226.37,206.25Z" fill="#f9a498"></path><path d="M277,254.41l.16-.23c-.26.19-.53.36-.8.54C276.56,254.63,276.77,254.51,277,254.41Z" fill="#efe8e4" style="mix-blend-mode: multiply;"></path><path d="M255.17,267.47c-11.1,0-23.53-9.07-28-17.92s-4.44-47.39-4.44-48.13a30.81,30.81,0,0,1,5.74-18.31,29.07,29.07,0,0,1,1.45-3.41c-8.86,5.74-12.46,15.5-12.46,24.71,0,.74-.07,39.28,4.44,48.13s16.94,17.88,28,17.92a30.23,30.23,0,0,0,17.21-5.54A29.31,29.31,0,0,1,255.17,267.47Z" fill="#f9a498"></path><path d="M286.34,199.68c-2.87-15.6-15.61-26.91-36.44-26.78s-34.43,12.86-37.16,27.3a123,123,0,0,0-1.59,25c3.51-2.89,5-3.26,6.67-2.59,1.16,12.75,3.94,12.56,3.94,12.56s.25-8.66.82-14.38,9.93-6.75,14.61-16.64c14.82-.65,24.18,18.34,40.43,19.38-1.6,9.39,2,13.13,2,13.13s.37-7.76,1.68-11.44a3.93,3.93,0,0,1,6.24-1.82C288.31,217.51,287.92,208.3,286.34,199.68Z" fill="#9c5631"></path><g opacity="0.5" style="mix-blend-mode: soft-light;"><path d="M286.34,199.68c-2.87-15.6-15.61-26.91-36.44-26.78-18.24.11-31,9.94-35.67,22.1,5.84-10,17.56-17.52,33.49-17.62,20.83-.13,33.57,11.19,36.43,26.79a93.39,93.39,0,0,1,1.55,18.39,3.93,3.93,0,0,1,1.8.79C288.31,217.51,287.92,208.3,286.34,199.68Z" fill="#fff"></path></g><g opacity="0.1" style="mix-blend-mode: multiply;"><path d="M237.19,196.69c-4.68,9.88-19.77,19.2-26,21.05,0-.32,0-.7-.05-1a83.47,83.47,0,0,0,.05,8.45c3.51-2.89,5-3.26,6.67-2.59,1.16,12.75,3.94,12.56,3.94,12.56s.25-8.66.82-14.38,9.93-6.75,14.61-16.64c14.76-.64,24.11,18.16,40.23,19.35C265.53,219.32,252,196,237.19,196.69Z" fill="#afaaa8"></path></g></g></g></svg>